<svg width="129" height="21" viewBox="0 0 129 21" fill="none" xmlns="http://www.w3.org/2000/svg">
<path d="M4.592 16.832H9.968V20H0.488V3.152H4.592V16.832ZM25.1495 6.608V20H21.0455V18.176C20.6295 18.768 20.0615 19.248 19.3415 19.616C18.6375 19.968 17.8535 20.144 16.9895 20.144C15.9655 20.144 15.0615 19.92 14.2775 19.472C13.4935 19.008 12.8855 18.344 12.4535 17.48C12.0215 16.616 11.8055 15.6 11.8055 14.432V6.608H15.8855V13.88C15.8855 14.776 16.1175 15.472 16.5815 15.968C17.0455 16.464 17.6695 16.712 18.4535 16.712C19.2535 16.712 19.8855 16.464 20.3495 15.968C20.8135 15.472 21.0455 14.776 21.0455 13.88V6.608H25.1495ZM45.1854 6.464C46.8494 6.464 48.1694 6.968 49.1454 7.976C50.1374 8.984 50.6334 10.384 50.6334 12.176V20H46.5534V12.728C46.5534 11.864 46.3214 11.2 45.8574 10.736C45.4094 10.256 44.7854 10.016 43.9854 10.016C43.1854 10.016 42.5534 10.256 42.0894 10.736C41.6414 11.2 41.4174 11.864 41.4174 12.728V20H37.3374V12.728C37.3374 11.864 37.1054 11.2 36.6414 10.736C36.1934 10.256 35.5694 10.016 34.7694 10.016C33.9694 10.016 33.3374 10.256 32.8734 10.736C32.4254 11.2 32.2014 11.864 32.2014 12.728V20H28.0974V6.608H32.2014V8.288C32.6174 7.728 33.1614 7.288 33.8334 6.968C34.5054 6.632 35.2654 6.464 36.1134 6.464C37.1214 6.464 38.0174 6.68 38.8014 7.112C39.6014 7.544 40.2254 8.16 40.6734 8.96C41.1374 8.224 41.7694 7.624 42.5694 7.16C43.3694 6.696 44.2414 6.464 45.1854 6.464ZM55.5676 5.216C54.8476 5.216 54.2556 5.008 53.7916 4.592C53.3436 4.16 53.1196 3.632 53.1196 3.008C53.1196 2.368 53.3436 1.84 53.7916 1.424C54.2556 0.991999 54.8476 0.775999 55.5676 0.775999C56.2716 0.775999 56.8476 0.991999 57.2956 1.424C57.7596 1.84 57.9916 2.368 57.9916 3.008C57.9916 3.632 57.7596 4.16 57.2956 4.592C56.8476 5.008 56.2716 5.216 55.5676 5.216ZM57.6076 6.608V20H53.5036V6.608H57.6076ZM75.1738 3.152V20H71.0698V13.064H64.6858V20H60.5818V3.152H64.6858V9.752H71.0698V3.152H75.1738ZM77.3204 13.28C77.3204 11.904 77.5764 10.696 78.0884 9.656C78.6164 8.616 79.3284 7.816 80.2244 7.256C81.1204 6.696 82.1204 6.416 83.2244 6.416C84.1684 6.416 84.9924 6.608 85.6964 6.992C86.4164 7.376 86.9684 7.88 87.3524 8.504V6.608H91.4564V20H87.3524V18.104C86.9524 18.728 86.3924 19.232 85.6724 19.616C84.9684 20 84.1444 20.192 83.2004 20.192C82.1124 20.192 81.1204 19.912 80.2244 19.352C79.3284 18.776 78.6164 17.968 78.0884 16.928C77.5764 15.872 77.3204 14.656 77.3204 13.28ZM87.3524 13.304C87.3524 12.28 87.0644 11.472 86.4884 10.88C85.9284 10.288 85.2404 9.992 84.4244 9.992C83.6084 9.992 82.9124 10.288 82.3364 10.88C81.7764 11.456 81.4964 12.256 81.4964 13.28C81.4964 14.304 81.7764 15.12 82.3364 15.728C82.9124 16.32 83.6084 16.616 84.4244 16.616C85.2404 16.616 85.9284 16.32 86.4884 15.728C87.0644 15.136 87.3524 14.328 87.3524 13.304ZM107.65 6.608V20H103.546V18.176C103.13 18.768 102.562 19.248 101.842 19.616C101.138 19.968 100.354 20.144 99.4895 20.144C98.4655 20.144 97.5615 19.92 96.7775 19.472C95.9935 19.008 95.3855 18.344 94.9535 17.48C94.5215 16.616 94.3055 15.6 94.3055 14.432V6.608H98.3855V13.88C98.3855 14.776 98.6175 15.472 99.0815 15.968C99.5455 16.464 100.17 16.712 100.954 16.712C101.754 16.712 102.386 16.464 102.85 15.968C103.314 15.472 103.546 14.776 103.546 13.88V6.608H107.65ZM116.045 20.192C114.877 20.192 113.837 19.992 112.925 19.592C112.013 19.192 111.293 18.648 110.765 17.96C110.237 17.256 109.941 16.472 109.877 15.608H113.933C113.981 16.072 114.197 16.448 114.581 16.736C114.965 17.024 115.437 17.168 115.997 17.168C116.509 17.168 116.901 17.072 117.173 16.88C117.461 16.672 117.605 16.408 117.605 16.088C117.605 15.704 117.405 15.424 117.005 15.248C116.605 15.056 115.957 14.848 115.061 14.624C114.101 14.4 113.301 14.168 112.661 13.928C112.021 13.672 111.469 13.28 111.005 12.752C110.541 12.208 110.309 11.48 110.309 10.568C110.309 9.8 110.517 9.104 110.933 8.48C111.365 7.84 111.989 7.336 112.805 6.968C113.637 6.6 114.621 6.416 115.757 6.416C117.437 6.416 118.757 6.832 119.717 7.664C120.693 8.496 121.253 9.6 121.397 10.976H117.605C117.541 10.512 117.333 10.144 116.981 9.872C116.645 9.6 116.197 9.464 115.637 9.464C115.157 9.464 114.789 9.56 114.533 9.752C114.277 9.928 114.149 10.176 114.149 10.496C114.149 10.88 114.349 11.168 114.749 11.36C115.165 11.552 115.805 11.744 116.669 11.936C117.661 12.192 118.469 12.448 119.093 12.704C119.717 12.944 120.261 13.344 120.725 13.904C121.205 14.448 121.453 15.184 121.469 16.112C121.469 16.896 121.245 17.6 120.797 18.224C120.365 18.832 119.733 19.312 118.901 19.664C118.085 20.016 117.133 20.192 116.045 20.192Z" fill="#2A2A2A"/>
<path d="M125.9 20.192C125.18 20.192 124.588 19.984 124.124 19.568C123.676 19.136 123.452 18.608 123.452 17.984C123.452 17.344 123.676 16.808 124.124 16.376C124.588 15.944 125.18 15.728 125.9 15.728C126.604 15.728 127.18 15.944 127.628 16.376C128.092 16.808 128.324 17.344 128.324 17.984C128.324 18.608 128.092 19.136 127.628 19.568C127.18 19.984 126.604 20.192 125.9 20.192Z" fill="#419DB4"/>
</svg>
